PathFileType	4	(X/Y/Z)	C:\My Captures\DataSMARTClinic\0004~001 ID\0004~aa~STRATO_01\W2_STRATO_ID_01.trc
DataRate	CameraRate	NumFrames	NumMarkers	Units	OrigDataRate	OrigDataStartFrame	OrigNumFrames
250.00	250.00	14	18	mm	250.00	541	1811
Frame#	Time	r.should			l.should			c7			r.asis			l.asis			sacrum			r.bar1			l.bar1			r.knee1			l.knee1			r.bar2			r.mall			l.bar2			l.mall			r.met			r.heel			l.heel			l.met			
		X1	Y1	Z1	X2	Y2	Z2	X3	Y3	Z3	X4	Y4	Z4	X5	Y5	Z5	X6	Y6	Z6	X7	Y7	Z7	X8	Y8	Z8	X9	Y9	Z9	X10	Y10	Z10	X11	Y11	Z11	X12	Y12	Z12	X13	Y13	Z13	X14	Y14	Z14	X15	Y15	Z15	X16	Y16	Z16	X17	Y17	Z17	X18	Y18	Z18	

1414	5.656000	1443.426013	1286.613703	443.740010	1392.824769	1306.605816	153.800234	1336.938739	1350.371361	303.214014	1482.195377	875.131488	436.150491	1495.065689	877.196431	169.955879	1280.731678	907.125413	288.863868	1410.533905	788.469911	486.714900	1445.982814	768.783212	111.753441	1414.961934	436.554730	431.644201	1503.581524	444.545120	160.150245	1397.603750	374.712497	432.762206	1387.168884	81.179321	380.032420	1474.536180	396.757662	154.729590	1269.226789	191.926748	186.412513	1509.780765	45.680631	363.155216	1330.364943	48.038933	333.758473	1205.035448	209.687784	231.972426	1332.104921	76.960780	215.353519	
1415	5.660000	1447.495818	1286.848187	443.933785	1396.164417	1306.615591	154.043823	1342.224479	1349.837542	303.259790	1487.252355	875.763595	437.143147	1499.093652	877.638102	170.438275	1284.455299	907.283187	289.012372	1414.348125	788.373351	486.752003	1449.942708	769.307733	111.796439	1416.280746	436.596572	431.631088	1510.309339	445.428222	160.355017	1398.504496	374.798387	432.672709	1387.245655	81.237882	379.926741	1479.523301	397.140026	154.918492	1279.650211	189.697668	187.257960	1509.839892	45.671172	363.151550	1330.446005	48.173048	333.641678	1215.015173	205.859825	233.197063	1345.081568	76.195985	215.791017	
1416	5.664000	1451.551437	1287.045002	444.107056	1399.496675	1306.579113	154.287323	1344.987750	1350.317597	304.296553	1490.591645	875.670671	437.230498	1503.096104	878.026187	170.910656	1288.224101	907.412112	289.191216	1418.198228	788.274765	486.841857	1453.948736	769.850969	111.789234	1417.639971	436.621755	431.595147	1516.933560	446.279705	160.525516	1399.466753	374.870479	432.603300	1387.340188	81.298545	379.822224	1485.800879	397.064865	155.944958	1290.433645	187.776491	187.825590	1509.894133	45.645934	363.143563	1330.496669	48.305869	333.532125	1225.027204	201.996595	234.329060	1358.062506	75.353496	216.164201	
1417	5.668000	1455.602288	1287.214756	444.266468	1402.825832	1306.533337	154.533446	1347.638130	1350.930691	304.886162	1492.861032	875.111163	436.745673	1507.038116	878.359258	171.339974	1291.996241	907.529294	289.382607	1422.054052	788.128674	486.892402	1457.971096	770.368934	111.729071	1419.003487	436.629415	431.546837	1523.546457	447.118968	160.710335	1400.486469	374.937356	432.539701	1387.441039	81.363559	379.739016	1493.533432	396.691680	157.568201	1301.073790	185.292572	188.629001	1509.945631	45.630839	363.132745	1330.569625	48.415706	333.433360	1235.373855	197.762191	235.388905	1371.189713	74.477486	216.477990	
1418	5.672000	1459.680557	1287.374020	444.420278	1406.034946	1306.643009	154.610455	1351.854920	1350.678921	305.194318	1496.174574	874.869108	436.801016	1510.969877	878.647566	171.733916	1295.769691	907.589257	289.556980	1425.845504	787.897706	486.907274	1461.911798	770.837903	111.709297	1420.445919	436.644733	431.536973	1530.469775	448.032618	160.991937	1401.584029	375.002623	432.467282	1387.574911	81.426658	379.656762	1501.378169	396.264911	159.207225	1311.743140	182.586610	189.456463	1509.997845	45.616664	363.117605	1330.676556	48.565771	333.341897	1245.965004	193.404958	236.374319	1384.666443	73.798485	216.674760	
1419	5.676000	1463.738918	1287.483573	444.555700	1409.209967	1306.777477	154.659227	1357.877731	1349.998474	306.167632	1500.355363	874.923348	437.319338	1514.910817	878.910422	172.108501	1299.474478	907.631874	289.748639	1429.630756	787.723124	486.978650	1465.742111	771.248341	111.726284	1421.904206	436.633378	431.520194	1537.856936	449.087173	161.396697	1402.746201	375.057936	432.391286	1387.714505	81.497148	379.568160	1507.991433	396.029115	160.280675	1322.502732	179.776415	190.256432	1510.062695	45.606993	363.106102	1330.789566	48.718773	333.224922	1256.413579	189.354092	237.866476	1398.532867	73.336281	216.773540	
1420	5.680000	1467.767239	1287.566900	444.686949	1412.424326	1306.474209	155.189484	1363.013268	1350.037336	307.698697	1505.344391	875.252247	438.248426	1518.829346	879.122853	172.429919	1303.155422	907.665193	289.967328	1433.354855	787.540734	487.064064	1469.658494	771.672964	111.668810	1423.392415	436.613321	431.486487	1544.564962	449.965358	161.528677	1403.912783	375.090092	432.330161	1387.853980	81.557304	379.492432	1513.353109	396.225691	160.399795	1333.376646	176.883116	191.016346	1510.122657	45.587357	363.084197	1330.880880	48.875462	333.129913	1267.094374	184.987009	239.075422	1411.843777	72.401427	216.934443	
1421	5.684000	1471.760750	1287.605166	444.810331	1414.899349	1306.710005	155.385941	1365.374565	1349.783421	306.603193	1509.353757	875.164986	438.640475	1522.679806	879.260182	172.729254	1306.897640	907.639384	290.173471	1437.065482	787.321866	487.141430	1473.646283	772.127271	111.604661	1424.866199	436.552823	431.465447	1551.036596	450.758547	161.593780	1405.144453	375.108033	432.270169	1387.993455	81.605971	379.411250	1521.611214	397.296339	159.430832	1344.353676	173.920512	191.711411	1510.172248	45.552917	363.065898	1330.961108	49.050584	333.027750	1278.027654	180.535674	240.153164	1425.053358	71.335547	217.051730	
1422	5.688000	1475.721955	1287.600517	444.918454	1417.694569	1306.977749	155.311078	1368.571639	1349.883199	306.819707	1512.488842	874.653697	438.583076	1526.506186	879.377007	172.988996	1310.671329	907.562852	290.375113	1440.728188	787.077129	487.247527	1477.446318	772.445440	111.606650	1426.402807	436.477780	431.471169	1557.383776	451.508462	161.644325	1406.474352	375.136942	432.210624	1388.146520	81.662618	379.327625	1531.998754	399.300516	157.122776	1355.443001	170.870796	192.359582	1510.236502	45.524627	363.054305	1331.044197	49.227938	332.948208	1289.093614	175.966620	241.192192	1438.364029	70.227623	217.076942	
1423	5.692000	1479.685664	1287.547827	445.021451	1420.888186	1306.921601	155.459672	1372.872472	1349.414945	306.721479	1515.447974	874.047041	438.408256	1530.296326	879.425764	173.234209	1314.422607	907.460093	290.570498	1444.275618	786.805332	487.374455	1481.263399	772.754729	111.647271	1427.607775	436.423153	431.159496	1563.634872	452.217847	161.685571	1407.788038	375.136644	432.167590	1388.322234	81.707239	379.255950	1538.202047	399.045199	157.762259	1366.588593	167.782053	192.951471	1510.296106	45.497190	363.034725	1331.128359	49.405757	332.872629	1300.267220	171.315908	242.136508	1451.742768	69.123507	217.043132	
1424	5.696000	1483.669877	1287.469268	445.111454	1424.120903	1306.720495	155.647680	1376.816034	1349.151134	306.935251	1520.145059	874.123454	439.148009	1534.050465	879.440308	173.441887	1318.121433	907.355189	290.775985	1447.777629	786.601365	487.506330	1485.102534	773.006856	111.649208	1428.269386	436.369568	430.461407	1569.775581	452.886760	161.716729	1409.086585	375.097781	432.130218	1388.475418	81.759170	379.177541	1543.360949	398.271978	159.149349	1377.843857	164.679825	193.492904	1510.341883	45.471486	363.022834	1331.392288	49.699686	332.992733	1311.576605	166.600540	243.033379	1465.189457	68.080083	216.960594	
1425	5.700000	1487.644672	1287.345886	445.182860	1427.388072	1306.519628	155.842632	1381.542563	1349.044919	308.059156	1524.079442	873.840570	439.454913	1537.759066	879.420161	173.618197	1321.813107	907.195628	290.992200	1451.348186	786.452115	487.604678	1488.950849	773.203313	111.615486	1429.612756	436.270803	430.279046	1575.495720	453.410983	161.628127	1410.427690	375.058770	432.074785	1388.623476	81.806079	379.105210	1552.558541	399.704576	157.567292	1389.237642	161.519334	193.966314	1510.371566	45.531452	363.141954	1331.957579	49.721539	332.945019	1323.070526	161.824584	243.787467	1478.750706	67.053638	216.819853	
1426	5.704000	1491.616130	1287.173748	445.247591	1430.675387	1306.283236	156.029880	1387.247920	1349.244118	310.394704	1527.943969	873.502254	439.717233	1541.448593	879.376829	173.756272	1325.571656	906.982422	291.200399	1454.500794	786.198080	487.843812	1492.828250	773.396611	111.632101	1431.139231	436.151475	430.191368	1581.072569	453.881979	161.454767	1411.799550	375.046402	431.996465	1388.798237	81.858769	379.031450	1559.767127	400.077075	157.288194	1400.982380	158.176497	194.357589	1510.411382	45.678519	363.334715	1332.424879	49.091522	332.014740	1334.722996	157.019839	244.492307	1492.402792	66.060528	216.581538	
1427	5.708000	1495.572805	1286.969066	445.293635	1433.925629	1305.995703	156.215876	1391.464233	1349.327207	311.378658	1531.699061	873.068213	439.905286	1545.132875	879.294813	173.851654	1329.322457	906.762958	291.391581	1457.227468	785.966933	488.181889	1496.647358	773.505449	111.677565	1432.729721	436.053574	430.117965	1587.195158	454.519719	161.445677	1413.152218	375.016630	431.917906	1388.950348	81.918888	378.943026	1566.440344	400.121540	157.268837	1413.168073	154.594779	194.654346	1510.547876	45.680191	363.236725	1332.536221	49.107473	331.692696	1346.441150	152.220622	245.107740	1506.101847	65.116972	216.267183	
